<?xml version="1.0" encoding="UTF-8"?><svg xmlns="http://www.w3.org/2000/svg" id="Layer_2" data-name="Layer 2" viewBox="0 0 659.85 649.44"><defs><style>.cls-1 {
        fill: #fff;
        filter: url(#drop-shadow-1);
      }

      .cls-2 {
        fill: #0a6ac3;
      }

      .cls-3 {
        fill: #f2f2f2;
      }

      .cls-4 {
        fill: #1a1a1a;
      }</style><filter id="drop-shadow-1" width="575.17" height="571" x="84.68" y="63.98" filterUnits="userSpaceOnUse"><feOffset dx="50" dy="25"/><feGaussianBlur result="blur" stdDeviation="15"/><feFlood flood-color="#000" flood-opacity=".1"/><feComposite in2="blur" operator="in"/><feComposite in="SourceGraphic"/></filter></defs><g id="Layer_1-2" data-name="Layer 1"><path d="M306.33 648.92c89.12 5.02 179.92-26.5 248-94.59 68.13-68.13 99.65-158.99 94.58-248.16H306.33v342.75Z" class="cls-2"/><path d="M233.85 233.69h402.63c-14.77-50.74-42.14-98.58-82.15-138.58C427.52-31.7 221.92-31.7 95.1 95.11c-126.81 126.81-126.81 332.41 0 459.23 40.04 40.04 87.94 67.44 138.74 82.19V233.69Z" class="cls-3"/><path d="M154.99 494.46c-93.74-93.74-93.74-245.72 0-339.47 93.74-93.74 245.72-93.74 339.47 0 44.06 44.06 67.42 100.99 70.05 158.7 2.98 65.05-20.37 131.09-70.05 180.77-49.71 49.71-115.8 73.06-180.89 70.05-57.66-2.66-114.54-26.02-158.57-70.05Z" class="cls-1"/><path d="M325.3 341.46c-1.94 0-3.51 1.57-3.51 3.51v67.31c0 1.94 1.57 3.51 3.51 3.51s3.51-1.57 3.51-3.51v-67.31c0-1.94-1.57-3.51-3.51-3.51Zm30.04 67.31c-1.88 0-3.52 1.56-3.57 3.4l-.27 8.9c-.08 2.62-1.81 4.66-3.94 4.66h-45.95c-6.04 0-10.96 5.31-10.96 11.85s4.92 11.85 10.96 11.85h35.07c1.94 0 3.51-1.57 3.51-3.51s-1.57-3.51-3.51-3.51h-35.07c-2.18 0-3.95-2.17-3.95-4.83s1.77-4.84 3.95-4.84h45.95c5.94 0 10.76-5.04 10.96-11.46l.27-8.91c.05-1.93-1.47-3.55-3.45-3.61Zm-8.26-100.39c-1.33-1.33-3.65-1.32-4.97 0l-17.4 17.4-17.4-17.4c-1.32-1.32-3.63-1.33-4.97 0a3.525 3.525 0 0 0 0 4.96l19.88 19.89c.66.66 1.55 1.02 2.48 1.02s1.82-.36 2.49-1.03l19.88-19.88a3.525 3.525 0 0 0 0-4.96ZM324.72 200c-1.93 0-3.51 1.57-3.51 3.51v32.08c0 1.94 1.57 3.51 3.51 3.51s3.51-1.57 3.51-3.51v-32.08c0-1.93-1.57-3.51-3.51-3.51Zm-53.8 178.52c-1.32-1.32-3.64-1.32-4.97 0l-29.44 29.44a3.543 3.543 0 0 0 0 4.96c.66.67 1.55 1.03 2.49 1.03s1.82-.36 2.49-1.03l29.43-29.43a3.525 3.525 0 0 0 0-4.96Zm142-141.99c-1.32-1.32-3.64-1.33-4.97 0l-25.7 25.7a3.525 3.525 0 0 0 0 4.96c.66.66 1.55 1.03 2.49 1.03s1.84-.38 2.48-1.03l25.7-25.7a3.525 3.525 0 0 0 0-4.96Zm-145.57 25.85-25.85-25.85a3.528 3.528 0 0 0-4.98 0 3.543 3.543 0 0 0 0 4.96l25.85 25.85c.66.66 1.55 1.03 2.49 1.03s1.82-.36 2.49-1.03c1.35-1.36 1.35-3.59 0-4.96Zm145.57 145.57-29.94-29.94c-1.33-1.33-3.65-1.32-4.97 0a3.525 3.525 0 0 0 0 4.96l29.94 29.93c.65.66 1.56 1.03 2.49 1.03s1.82-.36 2.49-1.03a3.525 3.525 0 0 0 0-4.96Zm-165.94-86.74H203.5c-1.93 0-3.51 1.57-3.51 3.51s1.57 3.51 3.51 3.51h43.48c1.93 0 3.51-1.57 3.51-3.51s-1.57-3.51-3.51-3.51Zm198.95 0h-43.47c-1.94 0-3.51 1.57-3.51 3.51s1.57 3.51 3.51 3.51h43.47c1.93 0 3.51-1.57 3.51-3.51s-1.57-3.51-3.51-3.51Z" class="cls-4"/><path d="M324.72 245.69c-37.47 0-67.95 32.26-67.95 71.91 0 14.82 4.24 29.05 12.27 41.16 7.34 11.07 20.31 50.07 21.81 54.6a3.49 3.49 0 0 0 3.33 2.42h61.57c1.54 0 2.88-.99 3.34-2.46.13-.42 13.64-43 21.31-54.57 8.03-12.11 12.28-26.34 12.28-41.16 0-39.65-30.49-71.91-67.96-71.91Zm60.94 71.92c0 13.44-3.84 26.33-11.1 37.28-7.15 10.78-17.89 43.06-21.38 53.88h-56.46c-3.61-10.82-14.7-43.13-21.84-53.88-7.26-10.96-11.1-23.85-11.1-37.28 0-35.78 27.33-64.89 60.93-64.89s60.94 29.11 60.94 64.89Z" class="cls-4"/></g></svg>