<?xml version="1.0" encoding="UTF-8"?><svg xmlns="http://www.w3.org/2000/svg" id="Layer_2" data-name="Layer 2" viewBox="0 0 659.96 649.44"><defs><style>.cls-1 {
        fill: #fff;
        filter: url(#drop-shadow-1);
      }

      .cls-2 {
        fill: #0a6ac3;
      }

      .cls-3 {
        fill: #f2f2f2;
      }

      .cls-4 {
        fill: #1a1a1a;
      }</style><filter id="drop-shadow-1" width="575.28" height="571" x="84.68" y="63.98" filterUnits="userSpaceOnUse"><feOffset dx="50" dy="25"/><feGaussianBlur result="blur" stdDeviation="15"/><feFlood flood-color="#000" flood-opacity=".1"/><feComposite in2="blur" operator="in"/><feComposite in="SourceGraphic"/></filter></defs><g id="Layer_1-2" data-name="Layer 1"><path d="M82.47 540.96c59.47 66.57 145.96 108.48 242.25 108.48s182.88-41.96 242.35-108.6L324.83 298.6 82.47 540.96Z" class="cls-2"/><path d="m324.83 196.09 284.7 284.7c25.43-46.32 39.91-99.51 39.91-156.08C649.44 145.38 504.06 0 324.72 0S0 145.38 0 324.72c0 56.63 14.5 109.87 39.99 156.22l284.84-284.85Z" class="cls-3"/><path d="M84.68 324.72c0-132.57 107.47-240.04 240.04-240.04s240.04 107.47 240.04 240.04c0 62.31-23.74 119.08-62.68 161.75-43.9 48.1-107.1 78.29-177.36 78.29s-133.55-30.22-177.44-78.38c-38.89-42.66-62.6-99.39-62.6-161.66Z" class="cls-1"/><path d="M317.91 371.98c-1.15-1.15-3.15-1.15-4.3 0a3.036 3.036 0 0 0 0 4.3l12.58 12.58c.59.6.92 1.39.92 2.24s-.33 1.64-.93 2.24l-16.24 16.24c-1.12 1.12-3.33 1.13-4.46 0l-12.62-12.62c-2.63-2.64-6.85-3.47-10.19-1.95-.97.44-1.96.85-2.95 1.24-3.44 1.33-5.76 4.76-5.76 8.55v17.84c0 1.74-1.42 3.16-3.16 3.16h-22.97c-1.74 0-3.16-1.42-3.16-3.16v-17.68c0-3.83-2.34-7.28-5.83-8.59-1.05-.39-2.08-.81-3.09-1.26-3.3-1.47-7.49-.65-10.12 1.98l-12.48 12.49c-1.13 1.13-3.35 1.13-4.48 0l-16.24-16.23c-.6-.6-.92-1.4-.92-2.24s.33-1.64.93-2.24l12.23-12.24c2.71-2.72 3.49-6.82 1.93-10.22-.51-1.1-.97-2.21-1.41-3.33-1.32-3.43-4.75-5.74-8.55-5.74h-17.27c-1.74 0-3.16-1.42-3.16-3.16v-22.97a3.16 3.16 0 0 1 3.16-3.16h17.03c3.85 0 7.3-2.35 8.59-5.84.45-1.2.93-2.38 1.44-3.53 1.51-3.37.72-7.44-1.97-10.13l-12.03-12.03c-.6-.6-.93-1.39-.93-2.24s.33-1.64.93-2.24l16.24-16.24c1.18-1.18 3.27-1.2 4.47 0l11.97 11.97c2.64 2.64 6.84 3.45 10.15 1.97 1.17-.53 2.36-1.02 3.56-1.47 3.5-1.3 5.85-4.77 5.85-8.63v-16.92c0-1.74 1.42-3.16 3.16-3.16h22.97a3.16 3.16 0 0 1 3.16 3.16v17.09c0 3.81 2.32 7.26 5.77 8.58 1.16.45 2.3.93 3.43 1.44 3.31 1.52 7.55.71 10.22-1.94l12.11-12.11c1.19-1.19 3.27-1.2 4.47 0l16.24 16.24c.6.6.93 1.39.93 2.24s-.33 1.64-.93 2.24l-12.37 12.37c-1.17 1.18-1.17 3.11 0 4.3 1.15 1.15 3.16 1.15 4.31 0l12.37-12.37c1.74-1.74 2.71-4.07 2.71-6.54s-.96-4.79-2.71-6.54l-16.24-16.24c-1.75-1.75-4.06-2.71-6.54-2.71s-4.79.96-6.54 2.71l-12.1 12.11c-.91.91-2.3 1.22-3.38.72-1.24-.58-2.51-1.11-3.8-1.6-1.11-.43-1.86-1.59-1.86-2.9v-17.09c0-5.1-4.15-9.25-9.25-9.25h-22.97c-5.1 0-9.25 4.15-9.25 9.25v16.92c0 1.33-.76 2.5-1.89 2.92-1.29.48-2.61 1.02-3.93 1.62-1.05.48-2.45.17-3.35-.73l-11.97-11.97c-1.75-1.75-4.07-2.71-6.55-2.71s-4.79.96-6.54 2.71l-16.24 16.24c-3.6 3.6-3.6 9.47 0 13.08l12.03 12.02c.92.92 1.21 2.26.73 3.34-.58 1.28-1.11 2.59-1.6 3.91-.41 1.12-1.58 1.87-2.89 1.87h-17.03c-5.1 0-9.25 4.15-9.25 9.25v22.97c0 5.1 4.15 9.25 9.25 9.25h17.27c1.29 0 2.45.74 2.87 1.85.49 1.25 1 2.47 1.55 3.68.5 1.1.22 2.45-.71 3.38l-12.23 12.24c-1.75 1.74-2.71 4.06-2.71 6.54s.96 4.79 2.71 6.54l16.24 16.24c1.67 1.67 4.06 2.63 6.54 2.63s4.87-.96 6.54-2.63l12.49-12.49c.89-.89 2.27-1.2 3.35-.72 1.13.5 2.26.97 3.41 1.4 1.13.42 1.88 1.58 1.88 2.89v17.68c0 5.1 4.15 9.25 9.25 9.25h22.97c5.1 0 9.25-4.15 9.25-9.25V404.8c0-1.29.75-2.45 1.86-2.88 1.11-.43 2.21-.89 3.28-1.37 1.07-.49 2.47-.2 3.38.71l12.63 12.63c1.67 1.67 4.05 2.63 6.54 2.63s4.87-.96 6.54-2.63l16.23-16.24c1.75-1.74 2.71-4.06 2.71-6.54s-.96-4.8-2.71-6.54l-12.57-12.58Z" class="cls-4"/><path d="m270 371.65-9.15-6.51c-1.32-.93-3.3-.61-4.25.71a3.02 3.02 0 0 0-.52 2.28c.13.8.58 1.5 1.23 1.97l3.18 2.27c-8.43.4-16.8-2.82-22.74-8.77-6.69-6.68-9.8-15.9-8.53-25.28.22-1.66-.95-3.19-2.61-3.42-1.7-.24-3.2.98-3.42 2.61-1.52 11.28 2.22 22.36 10.26 30.39 6.83 6.82 15.9 10.58 25.55 10.58h.01c3.4 0 6.78-.48 10.06-1.42a3.081 3.081 0 0 0 2.15-2.42c.18-1.14-.3-2.31-1.24-2.98Zm-10.99 5.95Zm25.64-60.71c-6.83-6.83-15.9-10.59-25.57-10.59-3.4 0-6.79.48-10.06 1.43a3.079 3.079 0 0 0-2.16 2.42c-.18 1.15.3 2.32 1.24 2.98l9.14 6.52c1.32.95 3.3.61 4.25-.71.47-.66.66-1.47.52-2.27-.13-.8-.57-1.5-1.23-1.97l-3.17-2.26c8.61-.39 16.74 2.76 22.74 8.76 6.68 6.68 9.79 15.89 8.53 25.28a3.05 3.05 0 0 0 3.02 3.45c1.52 0 2.81-1.13 3.02-2.64 1.5-11.28-2.24-22.36-10.26-30.39Zm185.44-30.87h-17.52c-1.31 0-2.47-.76-2.89-1.88-.45-1.2-.93-2.38-1.45-3.54-.48-1.09-.19-2.43.73-3.34l12.37-12.37c3.6-3.61 3.6-9.47 0-13.08l-16.24-16.24c-1.67-1.67-4.05-2.62-6.54-2.62s-4.87.96-6.54 2.62l-12.11 12.11c-.91.91-2.3 1.23-3.38.72a60.77 60.77 0 0 0-3.8-1.59c-1.11-.42-1.86-1.59-1.86-2.9v-17.09c0-5.1-4.15-9.24-9.25-9.24h-22.97c-5.1 0-9.25 4.15-9.25 9.24v16.91c0 1.33-.76 2.5-1.89 2.92-1.34.5-2.65 1.04-3.94 1.62-1.07.47-2.44.18-3.34-.73l-11.98-11.97c-1.74-1.74-4.06-2.7-6.53-2.7s-4.8.96-6.54 2.7l-16.23 16.24c-1.75 1.75-2.72 4.07-2.72 6.54s.96 4.78 2.71 6.54l12.02 12.02c1.15 1.15 3.16 1.15 4.31 0a3.054 3.054 0 0 0 0-4.3l-12.03-12.03c-.6-.6-.93-1.39-.93-2.23s.33-1.64.93-2.24l16.23-16.24c1.18-1.19 3.28-1.2 4.48 0l11.97 11.97c2.64 2.64 6.84 3.47 10.15 1.97a69.93 69.93 0 0 1 3.56-1.47c3.49-1.31 5.84-4.77 5.84-8.62v-16.91c0-1.74 1.42-3.16 3.16-3.16h22.97c1.74 0 3.16 1.42 3.16 3.16v17.09c0 3.82 2.32 7.27 5.77 8.58 1.16.45 2.3.93 3.43 1.44 3.33 1.51 7.55.71 10.22-1.94l12.11-12.11c1.12-1.13 3.34-1.13 4.46 0l16.24 16.24a3.169 3.169 0 0 1 0 4.47l-12.36 12.37c-2.68 2.68-3.48 6.75-1.99 10.11.47 1.05.9 2.12 1.3 3.2 1.3 3.5 4.75 5.85 8.59 5.85h17.52a3.16 3.16 0 0 1 3.16 3.16v22.97a3.16 3.16 0 0 1-3.16 3.16h-17.76c-3.79 0-7.22 2.3-8.55 5.74-.39 1.02-.82 2.02-1.27 3.01-1.54 3.4-.76 7.5 1.95 10.2l12.57 12.58c.6.6.92 1.39.92 2.24s-.33 1.64-.92 2.23l-16.24 16.24c-1.13 1.13-3.34 1.13-4.46 0l-12.63-12.63c-2.63-2.63-6.84-3.46-10.18-1.95-.97.44-1.96.85-2.96 1.24-3.45 1.33-5.76 4.77-5.76 8.56v17.85c0 1.74-1.42 3.16-3.16 3.16h-22.97c-1.74 0-3.16-1.42-3.16-3.16v-17.68c0-3.82-2.34-7.27-5.83-8.58-1.04-.39-2.07-.81-3.09-1.26-3.3-1.46-7.51-.64-10.12 1.98l-12.48 12.49c-1.19 1.19-3.28 1.19-4.47 0l-16.24-16.24c-.6-.6-.93-1.39-.93-2.24s.33-1.63.93-2.23l12.23-12.23a3.054 3.054 0 0 0 0-4.3c-1.15-1.15-3.16-1.15-4.31 0l-12.23 12.23c-1.75 1.75-2.72 4.07-2.72 6.54s.96 4.79 2.71 6.54l16.24 16.24c1.74 1.74 4.06 2.7 6.53 2.7s4.8-.96 6.55-2.7l12.48-12.49c.9-.89 2.29-1.19 3.36-.72 1.12.5 2.26.97 3.41 1.4 1.13.42 1.89 1.59 1.89 2.89v17.68c0 5.1 4.15 9.25 9.25 9.25h22.97c5.1 0 9.25-4.15 9.25-9.25v-17.85c0-1.29.75-2.45 1.86-2.88 1.11-.42 2.2-.89 3.28-1.37 1.06-.48 2.47-.19 3.37.71l12.63 12.63c1.67 1.67 4.05 2.63 6.54 2.63s4.87-.96 6.54-2.63l16.24-16.24c3.6-3.61 3.6-9.47 0-13.08l-12.58-12.57c-.93-.92-1.21-2.28-.71-3.38.5-1.09.96-2.21 1.4-3.34.43-1.1 1.58-1.85 2.88-1.85h17.76c5.1 0 9.25-4.15 9.25-9.25v-22.97c0-5.1-4.15-9.24-9.25-9.24Z" class="cls-4"/><path d="m400.85 335.71-9.14-6.51c-1.32-.95-3.31-.61-4.25.71-.47.66-.66 1.47-.52 2.27.13.8.57 1.5 1.23 1.97l3.18 2.27c-8.58.46-16.71-2.73-22.74-8.76-6.69-6.68-9.8-15.89-8.53-25.28a3.05 3.05 0 0 0-2.61-3.42c-1.63-.22-3.21.96-3.43 2.61-1.51 11.28 2.23 22.36 10.26 30.4 6.83 6.82 15.9 10.58 25.56 10.58 3.4 0 6.78-.48 10.06-1.42a3.065 3.065 0 0 0 2.15-2.42c.2-1.15-.29-2.32-1.23-2.99Zm14.65-54.76c-6.82-6.82-15.9-10.58-25.57-10.58-3.4 0-6.79.48-10.06 1.43a3.065 3.065 0 0 0-2.15 2.42c-.2 1.15.29 2.32 1.23 2.99l9.14 6.51c1.33.96 3.31.62 4.25-.71.47-.66.65-1.47.52-2.27-.14-.8-.58-1.5-1.24-1.97l-3.17-2.26c8.51-.42 16.73 2.75 22.74 8.76 6.69 6.69 9.8 15.9 8.53 25.28-.22 1.66.96 3.2 2.58 3.41.15.03.29.03.44.03 1.52 0 2.81-1.13 3.02-2.63 1.51-11.27-2.22-22.35-10.26-30.4Z" class="cls-4"/></g></svg>