<?xml version="1.0" encoding="UTF-8"?><svg xmlns="http://www.w3.org/2000/svg" xmlns:xlink="http://www.w3.org/1999/xlink" id="Layer_2" data-name="Layer 2" viewBox="0 0 282.27 65.99"><defs><style>.cls-1 {
        fill: url(#linear-gradient-2);
      }

      .cls-2 {
        fill: #231f20;
      }

      .cls-3 {
        fill: #81827e;
      }

      .cls-4 {
        fill: url(#linear-gradient);
      }</style><linearGradient id="linear-gradient" x1="46.39" x2="69.21" y1="14.4" y2="31.85" gradientUnits="userSpaceOnUse"><stop offset="0" stop-color="#b34215"/><stop offset=".05" stop-color="#c15416"/><stop offset=".16" stop-color="#df7b19"/><stop offset=".25" stop-color="#f2941b"/><stop offset=".3" stop-color="#f99d1c"/></linearGradient><linearGradient xlink:href="#linear-gradient" id="linear-gradient-2" x1="-2323.47" x2="-2300.65" y1="193.14" y2="210.59" gradientTransform="rotate(-180 -1145.495 111.77)"/></defs><g id="Layer_1-2" data-name="Layer 1"><path d="M126.52 61.08h.49v1.99l1.46-1.99h.65l-1.61 2.14 1.73 2.39h-.71l-1.52-2.22v2.22h-.49v-4.53Zm4.37-.07c1.04 0 1.65 1 1.65 2.34s-.6 2.34-1.65 2.34-1.64-.97-1.64-2.34.61-2.34 1.64-2.34Zm0 4.11c.79 0 1.13-.87 1.13-1.77s-.37-1.78-1.13-1.77c-.75 0-1.13.85-1.13 1.77s.34 1.77 1.13 1.77Zm2.28-4.04h.84c.68 0 1.33.14 1.33 1.23 0 .55-.31.94-.7 1.03.15.09.22.19.33.47l.65 1.81h-.56l-.52-1.57c-.15-.44-.31-.44-.57-.44h-.29v2.01h-.49v-4.53Zm.49 1.95h.42c.46 0 .74-.27.74-.71 0-.41-.24-.67-.69-.67h-.47v1.38Zm2.45-1.95h1.92v.57h-1.42v1.32h1.3v.57h-1.3v1.49h1.42v.57h-1.92v-4.53Zm3.74 0h.51l1.45 4.53h-.54l-.35-1.14h-1.68l-.35 1.14h-.51l1.46-4.53Zm.24.61-.68 2.25h1.36l-.68-2.25Zm3.47-.61h.49v4.53h-.49v-4.53Zm1.3 0h.67l1.51 3.65v-3.65h.49v4.53h-.63l-1.55-3.73v3.73h-.49v-4.53Zm5.06.69c-.25-.13-.39-.19-.64-.19-.27 0-.6.13-.6.6 0 .87 1.47.67 1.47 2.16 0 .97-.56 1.35-1.25 1.35-.24 0-.48-.09-.7-.19l.05-.6c.17.09.46.22.71.22.28 0 .67-.21.67-.74 0-1.01-1.47-.73-1.47-2.14 0-.81.48-1.23 1.1-1.23.23 0 .5.05.73.16l-.07.6Zm1.55-.12h-1.06v-.57h2.61v.57h-1.06v3.96h-.49v-3.96Zm2-.57h.49v4.53h-.49v-4.53Zm2 .57h-1.06v-.57h2.62v.57h-1.06v3.96h-.49v-3.96Zm4.66 2.09c0 1.27-.48 1.96-1.33 1.96s-1.33-.68-1.33-1.96v-2.65h.49v2.57c0 .87.21 1.47.84 1.47s.84-.6.84-1.47v-2.57h.49v2.65Zm1.51-2.09h-1.06v-.57h2.61v.57h-1.06v3.96h-.49v-3.96Zm2.02-.57h1.91v.57h-1.42v1.32h1.3v.57h-1.3v1.49h1.42v.57h-1.91v-4.53Zm5.02 1.15c.76 0 1.27.73 1.27 1.73 0 .95-.52 1.73-1.27 1.73s-1.27-.79-1.27-1.73c0-1.01.51-1.73 1.27-1.73Zm0 2.97c.54 0 .78-.65.78-1.24 0-.63-.29-1.24-.78-1.24s-.78.61-.78 1.24c0 .59.24 1.24.78 1.24Zm2.08-2.4h-.59v-.49h.59V62c0-.8.16-1.33.84-1.33.12 0 .22.02.31.04l-.02.49a.481.481 0 0 0-.22-.04c-.4 0-.45.34-.45.79v.36h.66v.49h-.66v2.82h-.46V62.8Zm5.27-.97c-.22-.17-.46-.25-.7-.25-.79 0-1.31.75-1.31 1.77s.58 1.77 1.29 1.77c.25 0 .57-.08.74-.22l.03.63c-.26.14-.58.16-.78.16-1.08 0-1.8-.92-1.8-2.36s.76-2.32 1.81-2.32c.26 0 .52.05.77.2l-.04.63Zm.58-.75h.49v4.53h-.49v-4.53Zm2.82 4.54h-.61l-1.29-4.53h.55l1.05 3.96h.01l1.08-3.96h.51l-1.31 4.53Zm1.75-4.54h.49v4.53h-.49v-4.53Zm1.28 0h.49v3.96h1.43v.57h-1.92v-4.53Zm3.74 0h1.91v.57h-1.42v1.32h1.3v.57h-1.3v1.49h1.42v.57h-1.91v-4.53Zm2.58 0h.67l1.51 3.65v-3.65h.49v4.53h-.63l-1.55-3.73h-.01v3.73h-.49v-4.53Zm6.08.81c-.24-.21-.5-.31-.94-.31-.79 0-1.31.76-1.31 1.77 0 1.06.58 1.77 1.29 1.77.34 0 .43-.04.55-.08v-1.38h-.72v-.53h1.21v2.36c-.19.08-.51.2-1.04.2-1.08 0-1.8-.92-1.8-2.36s.76-2.32 1.81-2.32c.5 0 .72.1 1 .23l-.04.66Zm.88-.81h.49v4.53h-.49v-4.53Zm1.3 0h.67l1.51 3.65v-3.65h.49v4.53h-.63l-1.55-3.73h-.01v3.73h-.49v-4.53Zm3.5 0h1.91v.57h-1.42v1.32h1.3v.57h-1.3v1.49h1.42v.57h-1.91v-4.53Zm2.59 0h1.92v.57h-1.43v1.32h1.3v.57h-1.3v1.49h1.43v.57h-1.92v-4.53Zm2.57 0h.84c.67 0 1.33.14 1.33 1.23 0 .55-.31.94-.71 1.03.15.09.23.19.33.47l.65 1.81h-.56l-.52-1.57c-.15-.44-.31-.44-.57-.44h-.29v2.01h-.49v-4.53Zm.49 1.95h.42c.46 0 .74-.27.74-.71 0-.41-.23-.67-.68-.67h-.47v1.38Zm2.45-1.95h.49v4.53h-.49v-4.53Zm1.29 0h.67l1.51 3.65h.01v-3.65h.49v4.53h-.63l-1.55-3.73v3.73h-.49v-4.53Zm6.08.81c-.24-.21-.5-.31-.94-.31-.79 0-1.31.76-1.31 1.77 0 1.06.58 1.77 1.29 1.77.34 0 .43-.04.55-.08v-1.38h-.72v-.53h1.21v2.36c-.19.08-.51.2-1.04.2-1.08 0-1.8-.92-1.8-2.36s.76-2.32 1.81-2.32c.5 0 .72.1 1 .23l-.04.66Zm2.28.65c.23-.18.5-.31.82-.31.71 0 1 .47 1 1.37v1.37c0 .38 0 .55.02.65h-.43v-.43c-.11.2-.35.51-.77.51-.54 0-.92-.31-.92-1.03 0-.83.69-1.09 1.16-1.09.18 0 .31 0 .49.01 0-.57-.16-.86-.62-.86-.26 0-.54.13-.72.34l-.03-.52Zm1.37 1.5c-.1 0-.2-.01-.29-.01-.25 0-.87.05-.87.64 0 .35.25.54.46.54.46 0 .7-.38.7-.87v-.29Zm1.15-1.74h.45v.53c.14-.38.47-.6.82-.6.65 0 .94.53.94 1.42v1.97h-.46v-1.71c0-.77-.13-1.15-.53-1.18-.52 0-.76.56-.76 1.36v1.53h-.46v-3.31Zm4.7 2.85c-.12.25-.41.54-.85.54-.76 0-1.07-.89-1.07-1.79s.35-1.67 1.08-1.67c.43 0 .68.23.83.53h.01v-2.01h.46v4.87h-.44v-.47Zm-.75.05c.52 0 .74-.68.74-1.23 0-.62-.24-1.25-.74-1.25s-.7.62-.69 1.23c0 .52.2 1.25.69 1.25Zm3.25-4.12h.93c.71 0 1.2.3 1.2 1.14 0 .62-.27.93-.7 1.08.46.06.79.47.79 1.1 0 .97-.61 1.21-1.3 1.21h-.91v-4.53Zm.49 1.94h.27c.48 0 .88-.06.88-.73 0-.54-.35-.68-.63-.68h-.51v1.4Zm0 2.06h.37c.44 0 .84-.12.84-.73 0-.7-.46-.8-.89-.8h-.32v1.53Zm4.94-1.34c0 1.27-.49 1.96-1.33 1.96s-1.33-.68-1.33-1.96v-2.65h.49v2.57c0 .87.21 1.47.84 1.47s.84-.6.84-1.47v-2.57h.49v2.65Zm.82-2.66h.49v4.53h-.49v-4.53Zm1.3 0h.49v3.96h1.43v.57h-1.92v-4.53Zm2.37 0h1.01c1.02 0 1.82.83 1.82 2.23 0 1.52-.7 2.3-1.82 2.3h-1.01v-4.53Zm.49 3.96h.51c.84 0 1.31-.54 1.31-1.71 0-1.06-.54-1.68-1.25-1.68h-.57v3.39Zm2.99-3.96h.49v4.53h-.49v-4.53Zm1.3 0h.67l1.51 3.65v-3.65h.49v4.53h-.63l-1.55-3.73v3.73h-.49v-4.53Zm6.08.81c-.24-.21-.5-.31-.94-.31-.79 0-1.31.76-1.31 1.77 0 1.06.58 1.77 1.29 1.77.34 0 .43-.04.55-.08v-1.38h-.72v-.53h1.21v2.36c-.19.08-.51.2-1.04.2-1.08 0-1.8-.92-1.8-2.36s.76-2.32 1.81-2.32c.5 0 .72.1 1 .23l-.04.66Zm2.88-.24h-1.06v-.57h2.62v.57h-1.06v3.96h-.49v-3.96Zm2.02-.57h1.92v.57h-1.43v1.32h1.3v.57h-1.3v1.49h1.43v.57h-1.92v-4.53Zm4.89.75a1.12 1.12 0 0 0-.71-.25c-.79 0-1.31.75-1.31 1.77s.58 1.77 1.29 1.77c.24 0 .57-.08.74-.22l.03.63c-.26.14-.58.16-.78.16-1.08 0-1.8-.92-1.8-2.36s.76-2.32 1.81-2.32c.26 0 .52.05.77.2l-.04.63Zm.58-.75h.49v1.89h1.63v-1.89h.49v4.53h-.49v-2.06h-1.63v2.06h-.49v-4.53Zm3.45 0h.66l1.51 3.65v-3.65h.49v4.53h-.63l-1.55-3.73v3.73h-.49v-4.53Zm4.94-.07c1.04 0 1.64 1 1.64 2.34s-.6 2.34-1.64 2.34-1.65-.97-1.65-2.34.61-2.34 1.65-2.34Zm0 4.11c.79 0 1.12-.87 1.12-1.77s-.37-1.78-1.12-1.77c-.76 0-1.13.85-1.13 1.77s.34 1.77 1.13 1.77Zm2.28-4.04h.49v3.96h1.43v.57h-1.92v-4.53Zm3.75-.07c1.04 0 1.64 1 1.64 2.34s-.6 2.34-1.64 2.34-1.64-.97-1.64-2.34.61-2.34 1.64-2.34Zm0 4.11c.79 0 1.13-.87 1.13-1.77s-.37-1.78-1.13-1.77c-.75 0-1.12.85-1.12 1.77s.34 1.77 1.12 1.77Zm4.89-3.23c-.24-.21-.5-.31-.94-.31-.79 0-1.31.76-1.31 1.77 0 1.06.58 1.77 1.29 1.77.34 0 .43-.04.55-.08v-1.38h-.72v-.53h1.21v2.36c-.18.08-.51.2-1.04.2-1.08 0-1.8-.92-1.8-2.36s.76-2.32 1.81-2.32c.5 0 .72.1 1 .23l-.04.66Zm1.82 1.83-1.34-2.63h.57l1.02 2.03.99-2.03h.57l-1.33 2.63v1.9h-.49v-1.9Zm-71.54-22.4v15.81h1.58c.63 0 1.15-.52 1.15-1.15V41.31h-2.73Zm-11.21 1.59h5.44v.06c0 .3-.07 7.25-5.97 7.86v1.52c.73-.02 8.66-.49 8.78-9.37v-1.47h-8.26v1.41Zm32.48 5.73v-1.4h-15.9v1.4h6.55v1.46h-5.52v1.4h10.97v1.37h-10.97v2.95c0 .72.58 1.3 1.3 1.3h12.38v-1.4h-10.97v-1.44h10.97V50.1h-5.45v-1.46h6.63Zm-8.04-4.29.04.04c1.38 1.24 3.71 1.91 6.91 1.99v-1.36c-.54-.01-5.16-.26-5.42-3.86h-3.05v.02c-.28 3.59-4.88 3.82-5.42 3.84v1.36c3.2-.08 5.53-.75 6.91-1.99l.04-.04Zm41.41 4.77c.52-.17.81-.67.81-1.15V41.5h-13.5v1.41h10.79v6.21h-11.87v1.41h6.45v6.59h1.57c.63 0 1.15-.52 1.15-1.15v-5.45h6.73v-1.41h-2.12Zm-21.92-.93.02-.03h3.07v4.51h1.58c.63 0 1.15-.52 1.15-1.15V41.31h-2.73v2.04h-3l-.02-.03c-.87-1.37-2.46-2.19-4.25-2.19-2.81 0-4.94 1.96-4.94 4.56s2.12 4.56 4.94 4.56c1.76 0 3.28-.76 4.17-2.07Zm.65-1.51a4.26 4.26 0 0 0 .02-1.84v-.07h2.42v1.99h-2.46l.02-.07Zm-7.03-.98c0-1.76.95-3.08 2.2-3.08s2.2 1.33 2.2 3.08-.95 3.08-2.2 3.08-2.2-1.33-2.2-3.08Zm1.76 10.03v-4.27h-2.72v4.37c0 .72.58 1.3 1.3 1.3h12.03v-1.4h-10.61Zm35.9-2.07h2.61v-3.47h4.03v1.18h-2.71v1.4h2.71v1.3h1.57c.63 0 1.15-.52 1.15-1.15V41.3h-2.72v7.47h-11.93v1.4h5.3v3.47Zm.25-5.68c2.78 0 4.79-1.43 4.79-3.39s-2.01-3.39-4.79-3.39-4.79 1.43-4.79 3.39 2.01 3.39 4.79 3.39Zm0-5.37c1.2 0 2.07.83 2.07 1.98s-.87 1.98-2.07 1.98-2.07-.83-2.07-1.98.87-1.98 2.07-1.98Zm-1.58 13.12v-4.02h-2.72v4.12c0 .72.58 1.3 1.3 1.3h12.27v-1.4h-10.86ZM191.37 41.3v2.29H188V45h3.37v4.08h1.58c.64 0 1.15-.51 1.15-1.15V41.3h-2.73Zm-7.3 4.94.04-.05.04.05c1.11 1.3 3.08 2.24 5.14 2.44 0 0 .17.01.25.02v-1.36l-.26-.03c-.04 0-3.75-.54-3.75-5.33v-.65h-2.85v.53c0 4.91-3.71 5.45-3.75 5.46 0 0-.19.02-.26.03v1.36c.09 0 .25-.02.25-.02 2.06-.2 4.04-1.13 5.14-2.44Zm-3.41 3.75v1.4h10.72v1.43h-10.72v3.01c0 .72.58 1.3 1.3 1.3h12.14v-1.4h-10.72v-1.51h10.72v-4.23h-13.44Zm-40.98-5.46v-3.21h-2.73v11.36h1.58c.63 0 1.15-.52 1.15-1.15v-5.58h2.24v-1.41h-2.24Zm-10.44 6.93h-2.72v4.37c0 .72.58 1.3 1.3 1.3h12.03v-1.4h-10.61v-4.27Zm5.88-9.68h-3.68v-1.3h-2.9v1.3h-3.68v1.41h10.25v-1.41Zm-.12 5.18c0-1.87-2.1-3.38-5.09-3.38s-5.09 1.51-5.09 3.38 2.08 3.38 5.09 3.38 5.09-1.51 5.09-3.38Zm-7.3 0c0-1.09.9-1.96 2.21-1.96s2.21.88 2.21 1.96-.92 1.96-2.21 1.96-2.21-.88-2.21-1.96Zm31.32 1.78v-1.41h-2.12c.54-.17.81-.67.81-1.15v-4.83h-13.5v1.41H155v4.57h-11.87v1.41h6.45v2.56h-5.36v1.41h10.79v4.43h1.57c.63 0 1.15-.52 1.15-1.15V51.3h-5.43v-2.56h6.73Zm6.73 6.99v-4.27h-2.72v4.37c0 .72.58 1.3 1.3 1.3h12.14v-1.4h-10.72Zm4.34-10.9v1.14h3.37v6.71h1.58c.64 0 1.15-.51 1.15-1.15V41.32h-2.73v3.23h-3.29c.13-.55.21-1.15.21-1.82v-1.41h-8.49v1.41h5.67s.12 5.54-6.22 5.83v1.33s7.22.2 8.75-5.07Z" class="cls-3"/><path d="M48.77 11.27c2.42-2.85 7.39-5.52 11.97-4.71 6.07 1.08 6.85 7.26 4.51 10.72-2.81 4.17-9.96 5.12-14.87 5.12H39.44l-9.75 11.62h15.47c8.76 0 23.02.99 30.51-9.9 4.28-6.22 5.01-16.56-2.42-21.55-6.49-4.36-14.9-2.75-18.51 1.58l-5.97 7.12Z" class="cls-4"/><path d="M30.1 33.53c-2.42 2.85-7.39 5.52-11.97 4.71-6.07-1.08-6.85-7.26-4.51-10.72 2.81-4.17 9.96-5.12 14.87-5.12h10.95l9.75-11.62H33.72c-8.76 0-23.02-.99-30.51 9.91-4.28 6.22-5.01 16.56 2.42 21.54 6.49 4.36 14.9 2.75 18.51-1.58l5.97-7.12Z" class="cls-1"/><path d="M65.51 62.86V41.32h-6.58v24.3h3.59c1.19 0 2.99-.67 2.99-2.77Zm16.04-16.82c4.7-1.59 9.11.61 9.11.61v-4.82s-3.88-1.18-8.18-.9c-3.35.22-12.56 1.9-12.56 12.51s9.21 12.29 12.56 12.51c4.3.28 8.18-.9 8.18-.9v-4.82s-4.41 2.2-9.11.61c-5.18-1.75-4.87-7.4-4.87-7.4s-.31-5.65 4.87-7.4Zm32.82-4.72H93.55v4.35h7.12v19.96h3.6c1.19 0 2.99-.67 2.99-2.77V45.67h7.12v-4.35Zm-58.68 24.3L45.06 52.43l9.55-11.11h-7.33l-8.59 10.23V41.32h-6.58v24.3h3.6c1.19 0 2.99-.67 2.99-2.77v-8.88l9.15 11.65h7.83Z" class="cls-2"/></g></svg>